<?xml version="1.0" encoding="iso-8859-1"?>
<!-- Uploaded to: SVG Repo, www.svgrepo.com, Generator: SVG Repo Mixer Tools -->
<svg height="800px" width="800px" version="1.1" id="Layer_1" xmlns="http://www.w3.org/2000/svg" xmlns:xlink="http://www.w3.org/1999/xlink" 
	 viewBox="0 0 512 512" xml:space="preserve">
<circle style="fill:#B2E3FF;" cx="256" cy="256" r="256"/>
<path style="fill:#A9D8F2;" d="M481.824,376.616c-0.292-0.828-0.648-1.628-0.984-2.436c-0.292-0.832-0.652-1.64-0.992-2.452
	c-0.292-0.836-0.656-1.64-0.992-2.46c-0.292-0.836-0.656-1.64-0.996-2.456c-0.288-0.832-0.648-1.636-0.988-2.448
	c-0.292-0.832-0.652-1.64-0.988-2.452c-0.296-0.836-0.656-1.64-0.992-2.46c-0.296-0.836-0.656-1.644-1-2.46
	c-0.288-0.832-0.648-1.632-0.984-2.444c-0.296-0.832-0.656-1.64-0.992-2.452c-0.296-0.844-0.664-1.664-1.008-2.492
	c-0.288-0.828-0.648-1.616-0.984-2.42c-0.292-0.836-0.656-1.644-0.992-2.46c-0.292-0.832-0.656-1.632-0.992-2.444
	c-0.288-0.836-0.648-1.64-0.988-2.456c-0.292-0.832-0.656-1.64-0.992-2.456c-0.296-0.836-0.656-1.644-0.996-2.46
	c-0.292-0.828-0.652-1.632-0.988-2.444c-0.292-0.836-0.652-1.64-0.992-2.456c-0.292-0.832-0.656-1.64-0.992-2.456
	c-0.296-0.836-0.656-1.64-0.996-2.46c-0.288-0.828-0.652-1.632-0.988-2.444c-0.292-0.832-0.652-1.64-0.992-2.456
	c-0.292-0.832-0.656-1.64-0.992-2.456c-0.292-0.832-0.652-1.64-0.988-2.452c-0.296-0.836-0.656-1.648-1-2.46
	c-0.288-0.832-0.648-1.636-0.984-2.448c-0.296-0.832-0.656-1.64-0.992-2.456c-0.296-0.828-0.656-1.64-0.992-2.452
	c-0.296-0.836-0.656-1.644-1-2.46c-0.288-0.832-0.648-1.636-0.984-2.448c-0.292-0.832-0.656-1.636-0.992-2.456
	c-0.292-0.828-0.656-1.64-0.992-2.452c-0.296-0.836-0.656-1.644-0.996-2.46c-0.292-0.832-0.652-1.636-0.988-2.448
	c-0.296-0.844-0.664-1.664-1.008-2.488c-0.288-0.828-0.648-1.616-0.98-2.42c-0.292-0.832-0.652-1.64-0.992-2.452
	c-0.292-0.836-0.656-1.648-0.996-2.464c-0.292-0.832-0.652-1.636-0.988-2.448c-0.292-0.828-0.652-1.636-0.992-2.452
	c-0.292-0.832-0.656-1.64-0.992-2.456c-0.292-0.836-0.656-1.644-0.996-2.456c-0.288-0.836-0.648-1.64-0.984-2.452
	c-0.296-0.828-0.656-1.636-0.992-2.452c-0.296-0.832-0.656-1.64-0.992-2.456c-0.296-0.836-0.656-1.644-1-2.456
	c-0.288-0.836-0.648-1.64-0.984-2.448c-0.292-0.832-0.656-1.64-0.992-2.456c-0.292-0.832-0.656-1.64-0.992-2.456
	c-0.292-0.832-0.656-1.64-0.992-2.452c-0.292-0.836-0.656-1.648-1-2.464c-0.288-0.832-0.648-1.636-0.984-2.448
	c-0.292-0.832-0.656-1.64-0.992-2.456c-0.292-0.832-0.652-1.64-0.992-2.452c-0.292-0.836-0.656-1.648-0.996-2.464
	c-0.292-0.832-0.652-1.636-0.988-2.448c-0.292-0.832-0.652-1.64-0.992-2.456c-0.288-0.832-0.656-1.64-0.996-2.46
	c-0.292-0.832-0.652-1.64-0.992-2.456c-0.292-0.844-0.66-1.66-1.004-2.484c-0.288-0.824-0.648-1.616-0.98-2.42
	c-0.292-0.832-0.652-1.64-0.988-2.456c-0.296-0.836-0.656-1.64-0.992-2.452c-0.296-0.836-0.656-1.644-1-2.464
	c-0.288-0.832-0.648-1.636-0.984-2.448c-0.296-0.832-0.656-1.64-0.992-2.452c-0.292-0.836-0.656-1.644-0.992-2.46
	c-0.296-0.836-0.656-1.644-1-2.46c-0.288-0.832-0.648-1.636-0.984-2.448c-0.292-0.832-0.652-1.64-0.992-2.452
	c-0.292-0.836-0.656-1.644-0.992-2.46c-0.296-0.836-0.656-1.644-0.996-2.46c-0.292-0.832-0.652-1.636-0.988-2.448
	c-0.292-0.832-0.656-1.64-0.992-2.456c-0.292-0.836-0.656-1.644-0.992-2.46c-0.288-0.832-0.656-1.64-0.992-2.452
	c-0.288-0.832-0.652-1.64-0.992-2.456c-0.288-0.836-0.656-1.644-0.996-2.46c-0.292-0.832-0.652-1.636-0.988-2.452
	c-0.288-0.836-0.656-1.644-0.992-2.464c-0.296-0.832-0.656-1.636-0.992-2.448c-0.288-0.836-0.656-1.644-0.992-2.46
	c-0.296-0.832-0.656-1.636-0.992-2.452c-0.288-0.836-0.656-1.644-0.992-2.464c-0.296-0.844-0.664-1.66-1.008-2.488
	c-0.288-0.824-0.648-1.62-0.984-2.424c-0.284-0.832-0.648-1.636-0.984-2.452c-0.292-0.836-0.656-1.644-1-2.464
	c-0.284-0.832-0.648-1.636-0.984-2.448c-0.292-0.832-0.652-1.64-0.992-2.456c-0.292-0.836-0.656-1.644-0.996-2.46
	c-0.288-0.832-0.652-1.636-0.988-2.452c-0.292-0.836-0.656-1.644-0.996-2.464c-0.288-0.832-0.652-1.636-0.988-2.448
	c-0.292-0.836-0.656-1.644-0.996-2.46c-0.288-0.832-0.652-1.636-0.988-2.452C378.684,118.792,358.984,104,338,104h-12H210h-36
	c-1.344,0-2.676,0.08-4.004,0.2c-0.472,0.044-0.94,0.104-1.412,0.164c-0.852,0.1-1.688,0.224-2.532,0.372
	c-0.556,0.1-1.108,0.2-1.664,0.32c-0.764,0.168-1.532,0.36-2.288,0.564c-0.54,0.144-1.084,0.268-1.616,0.428
	c-18.324,5.552-33.408,21.808-36.188,40.964L96.032,330.796C94.72,334.964,94,339.4,94,344v20c0,6.376,1.4,12.42,3.844,17.9
	c0.312,0.828,0.632,1.656,0.992,2.456c0.312,0.832,0.636,1.66,0.996,2.468c0.312,0.824,0.628,1.64,0.988,2.44
	c0.312,0.828,0.632,1.648,0.992,2.452c0.312,0.828,0.632,1.652,0.992,2.456c0.312,0.828,0.632,1.652,0.992,2.456
	c0.312,0.832,0.632,1.66,0.992,2.468c0.312,0.82,0.632,1.64,0.992,2.436c0.312,0.828,0.632,1.652,0.992,2.456
	c0.312,0.828,0.632,1.652,0.992,2.456c0.312,0.844,0.64,1.684,1.016,2.504c0.304,0.808,0.616,1.612,0.968,2.408
	c0.312,0.828,0.632,1.652,0.992,2.456c0.312,0.828,0.632,1.652,0.992,2.452c0.312,0.836,0.636,1.664,1,2.468
	c0.308,0.828,0.624,1.64,0.984,2.44c0.312,0.828,0.632,1.652,0.992,2.456c0.312,0.828,0.632,1.652,0.992,2.452
	c0.312,0.836,0.636,1.664,0.996,2.468c0.312,0.828,0.628,1.64,0.988,2.44c0.312,0.828,0.632,1.652,0.992,2.456
	c0.312,0.828,0.632,1.648,0.992,2.452c0.312,0.828,0.632,1.656,0.992,2.456c0.312,0.832,0.632,1.66,0.996,2.468
	c0.308,0.824,0.628,1.64,0.988,2.44c0.312,0.828,0.632,1.648,0.992,2.452c0.312,0.828,0.632,1.656,0.992,2.456
	c0.312,0.832,0.632,1.66,0.992,2.468c0.312,0.824,0.632,1.64,0.992,2.44c0.312,0.828,0.632,1.648,0.992,2.452
	c0.312,0.828,0.628,1.652,0.992,2.456c0.312,0.832,0.632,1.66,0.992,2.468c0.312,0.824,0.628,1.636,0.992,2.44
	c0.308,0.828,0.628,1.648,0.988,2.452c0.312,0.828,0.632,1.652,0.992,2.456c0.316,0.84,0.64,1.676,1.008,2.492
	c0.308,0.82,0.628,1.636,0.984,2.432c0.312,0.82,0.628,1.64,0.988,2.436c0.312,0.828,0.632,1.652,0.992,2.456
	c0.312,0.828,0.632,1.652,0.992,2.456c0.312,0.828,0.636,1.656,0.996,2.468c0.128,0.352,0.284,0.688,0.416,1.04
	C174.044,501.736,213.812,512,256,512C353.764,512,438.704,457.18,481.824,376.616z"/>
<path style="fill:#CC584C;" d="M414,360H98c-1.16,0-2.264-0.504-3.024-1.384C94.22,357.744,94,352,94,344l30.296-196.988
	C127.744,123.296,150.036,104,174,104h164c23.964,0,46.256,19.296,49.704,43.012L418,344c0,4-0.22,13.744-0.976,14.616
	C416.264,359.496,415.16,360,414,360z"/>
<g>
	<path style="fill:#B34E42;" d="M387.704,147.012C384.256,123.296,361.964,104,338,104h-12c23.964,0,46.256,19.296,49.704,43.012
		L406,344c0,4-0.22,13.744-0.976,14.616c-0.76,0.88-1.864,1.384-3.024,1.384h12c1.16,0,2.264-0.504,3.024-1.384
		C417.78,357.744,418,348,418,344L387.704,147.012z"/>
	<path style="fill:#B34E42;" d="M374,408H138c-24.256,0-44-19.744-44-44v-20c0-24.256,19.744-44,44-44h236c24.256,0,44,19.744,44,44
		v20C418,388.256,398.256,408,374,408z"/>
</g>
<path style="fill:#CC584C;" d="M138,400c-19.852,0-36-16.148-36-36v-20c0-19.852,16.148-36,36-36h236c19.852,0,36,16.148,36,36v20
	c0,19.852-16.148,36-36,36H138z"/>
<circle style="fill:#F5F5F5;" cx="347.32" cy="354" r="20"/>
<circle style="fill:#CC584C;" cx="347.32" cy="354" r="12"/>
<g>
	<path style="fill:#FFFFFF;" d="M356,224c0-4.416-3.584-8-8-8H168c-4.416,0-8,3.584-8,8v16c0,4.416,3.584,8,8,8h180
		c4.416,0,8-3.584,8-8V224z M192,240c-4.42,0-8-3.58-8-8s3.58-8,8-8s8,3.58,8,8S196.42,240,192,240z M220,240c-4.42,0-8-3.58-8-8
		s3.58-8,8-8s8,3.58,8,8S224.42,240,220,240z M248,240c-4.42,0-8-3.58-8-8s3.58-8,8-8s8,3.58,8,8S252.42,240,248,240z"/>
	<path style="fill:#FFFFFF;" d="M232.004,204C220.972,204,212,195.028,212,184s8.972-20,20.004-20c11.024,0,19.996,8.972,19.996,20
		S243.028,204,232.004,204z M232.004,172c-6.612,0-12.004,5.38-12.004,12s5.392,12,12.004,12c6.604,0,11.996-5.38,11.996-12
		S238.608,172,232.004,172z"/>
	<path style="fill:#FFFFFF;" d="M292,188h-40c-2.544,0-4-1.456-4-4s1.456-4,4-4h40c2.544,0,4,1.456,4,4S294.544,188,292,188z"/>
	<path style="fill:#FFFFFF;" d="M272,196c-2.548,0-4-1.456-4-4v-5.324c0-2.544,1.452-4.608,4-4.608s4,2.064,4,4.608V192
		C276,194.544,274.548,196,272,196z"/>
	<path style="fill:#FFFFFF;" d="M288,200c-2.548,0-4-1.456-4-4v-9.324c0-2.544,1.452-4.608,4-4.608s4,2.064,4,4.608V196
		C292,198.544,290.548,200,288,200z"/>
</g>
</svg>